<svg xmlns="http://www.w3.org/2000/svg" viewBox="0 0 64 64">
    <path d="M1,32 a31,31 0,1 0,62,0 a31,31 0,1 0,-62,0" fill="#F5DED5"/><g transform="translate(-6 -5) scale(0.8)">
    <path d="M28,27 a8,8 0,1 0,16,0 a8,8 0,1 0,-16,0" fill="#DBAA83" stroke="#FFFFFF" stroke-width="3" stroke-linecap="round" stroke-linejoin="round"/>
    <path d="M52,27 a8,8 0,1 0,16,0 a8,8 0,1 0,-16,0" fill="#DBAA83" stroke="#FFFFFF" stroke-width="3" stroke-linecap="round" stroke-linejoin="round"/>
    <path d="M33,27 a3,3 0,1 0,6,0 a3,3 0,1 0,-6,0" fill="#EFBCAC"/>
    <path d="M57,27 a3,3 0,1 0,6,0 a3,3 0,1 0,-6,0" fill="#EFBCAC"/>
    <path d="M28,64 a20,22 0,1 0,40,0 a20,22 0,1 0,-40,0" fill="#DBAA83" stroke="#FFFFFF" stroke-width="3" stroke-linecap="round" stroke-linejoin="round"/>
    <path d="M26,42 a22,20 0,1 0,44,0 a22,20 0,1 0,-44,0" fill="#DBAA83" stroke="#FFFFFF" stroke-width="3" stroke-linecap="round" stroke-linejoin="round"/>
    <path d="M39.3,42 a1.7,2.2 0,1 0,3.4,0 a1.7,2.2 0,1 0,-3.4,0" fill="#664B47"/>
    <path d="M53.3,42 a1.7,2.2 0,1 0,3.4,0 a1.7,2.2 0,1 0,-3.4,0" fill="#664B47"/>
    <path d="M31,48 a4,2.5 0,1 0,8,0 a4,2.5 0,1 0,-8,0" fill="#F4A3A8"/>
    <path d="M57,48 a4,2.5 0,1 0,8,0 a4,2.5 0,1 0,-8,0" fill="#F4A3A8"/>
    <path d="M41.5,48 a6.5,5 0,1 0,13,0 a6.5,5 0,1 0,-13,0" fill="#FFF1DC"/>
    <path d="M46,46 a2,1.5 0,1 0,4,0 a2,1.5 0,1 0,-4,0" fill="#664B47"/>
    <path d="M48,48 v2 q-2,2 -3,0 M48,50 q2,2 3,0" fill="#000000" fill-opacity="0" stroke="#664B47" stroke-width="1.2" stroke-linecap="round" stroke-linejoin="round"/></g>
</svg>
