<svg xmlns="http://www.w3.org/2000/svg" width="220" height="160" viewBox="0 0 220 160">
<path d="M0,147 Q44,129 82,148 T170,142 T220,148 L220,160 L0,160Z" fill="#97C3AD" fill-opacity="0.333"/>
<path d="M175,0 Q184,20 219,34 M2,136 Q23,133 39,156" fill="#000000" fill-opacity="0.000" stroke="#629D7F" stroke-opacity="0.600" stroke-width="1.2" stroke-linecap="round" stroke-linejoin="round"/>
<path d="M185,10 Q175,6 177,0 Q190,2 185,10Z" fill="#8DB99A" fill-opacity="0.600"/>
<path d="M196,24 Q180,25 185,13 Q198,14 196,24Z" fill="#74A889" fill-opacity="0.600"/>
<path d="M207,29 Q204,12 217,13 Q220,23 207,29Z" fill="#A9C6A2" fill-opacity="0.600"/>
<path d="M17,139 Q6,126 17,122 Q28,125 17,139Z" fill="#98BA84" fill-opacity="0.667"/>
<path d="M13.3,18 a1.7,1.7 0,1 0,3.4,0 a1.7,1.7 0,1 0,-3.4,0" fill="#FFFFFF" fill-opacity="0.867"/>
<path d="M197.5,142 a1.5,1.5 0,1 0,3,0 a1.5,1.5 0,1 0,-3,0" fill="#FFFFFF" fill-opacity="0.667"/>
</svg>
