v  0.000000  0.000000  1.000000
v  0.250000  0.250000  0.750000
v  0.500000  0.500000  0.500000
v  0.750000  0.750000  0.250000
v  1.000000  1.000000  0.000000
v  0.750000  0.750000 -0.250000
v  0.500000  0.500000 -0.500000
v  0.250000  0.250000 -0.750000
v  0.000000  0.000000 -1.000000
v -0.250000 -0.250000 -0.750000
v -0.500000 -0.500000 -0.500000
v -0.750000 -0.750000 -0.250000
v -1.000000 -1.000000  0.000000
v -0.750000 -0.750000  0.250000
v -0.500000 -0.500000  0.500000
v -0.250000 -0.250000  0.750000
f 1 2 16
f 2 3 15
f 3 4 14
f 4 5 13
f 5 6 12
f 6 7 11
f 7 8 10
f 8 9 9
