<svg xmlns="http://www.w3.org/2000/svg" width="100" height="100" viewBox="0 0 100 100">
  <path d="M50 61.64 C45.56 58.68 21.88 41.66 21.88 23.9 C21.88 10.58 40.38 6.14 50 19.46 C59.62 6.14 78.12 10.58 78.12 23.9 C78.12 41.66 54.44 58.68 50 61.64 Z" fill="#F45C74"/>
  <path d="M22.62 29.08 C30.76 46.1 44.82 53.5 50 57.2 C55.18 53.5 69.24 46.1 77.38 29.08 C72.94 44.62 55.18 58.68 50 61.64 C44.82 58.68 27.06 44.62 22.62 29.08 Z" fill="#CC3455"/>
  <path d="M30.02 23.16 C30.02 15.76 38.16 14.28 41.86 17.24 C34.46 17.24 32.98 21.68 32.24 26.12 C30.76 27.6 29.28 26.12 30.02 23.16 Z" fill="#FFFFFF"/>
  <path d="M50 72 A7 7 0 1 1 50 86 A7 7 0 1 1 50 72 Z" fill="#E34A69"/>
</svg>
