<svg xmlns="http://www.w3.org/2000/svg" viewBox="0 0 120 100">
    <path d="M17,88 a43,5 0,1 0,86,0 a43,5 0,1 0,-86,0" fill="#B76C93" fill-opacity="0.13333333333333333"/>
    <path d="M15,18 Q16,23 21,24 Q16,25 15,30 Q14,25 9,24 Q14,23 15,18Z" fill="#FFC563"/>
    <path d="M104,33 Q105,38 110,39 Q105,40 104,45 Q103,40 98,39 Q103,38 104,33Z" fill="#A79CE6"/>
    <path d="M94,20.95 C81.4,13.6 89.1,6.6 94,11.85 C98.9,6.6 106.6,13.6 94,20.95Z" fill="#EF769B" stroke="#FFFFFF" stroke-width="2" stroke-linecap="round" stroke-linejoin="round"/>
    <path d="M18,28 a8,8 0,1 0,16,0 a8,8 0,1 0,-16,0" fill="#DBAA83" stroke="#FFFFFF" stroke-width="3" stroke-linecap="round" stroke-linejoin="round"/>
    <path d="M42,28 a8,8 0,1 0,16,0 a8,8 0,1 0,-16,0" fill="#DBAA83" stroke="#FFFFFF" stroke-width="3" stroke-linecap="round" stroke-linejoin="round"/>
    <path d="M23,28 a3,3 0,1 0,6,0 a3,3 0,1 0,-6,0" fill="#EFBCAC"/>
    <path d="M47,28 a3,3 0,1 0,6,0 a3,3 0,1 0,-6,0" fill="#EFBCAC"/>
    <path d="M18,65 a20,22 0,1 0,40,0 a20,22 0,1 0,-40,0" fill="#DBAA83" stroke="#FFFFFF" stroke-width="3" stroke-linecap="round" stroke-linejoin="round"/>
    <path d="M16,43 a22,20 0,1 0,44,0 a22,20 0,1 0,-44,0" fill="#DBAA83" stroke="#FFFFFF" stroke-width="3" stroke-linecap="round" stroke-linejoin="round"/>
    <path d="M29.3,43 a1.7,2.2 0,1 0,3.4,0 a1.7,2.2 0,1 0,-3.4,0" fill="#664B47"/>
    <path d="M43.3,43 a1.7,2.2 0,1 0,3.4,0 a1.7,2.2 0,1 0,-3.4,0" fill="#664B47"/>
    <path d="M21,49 a4,2.5 0,1 0,8,0 a4,2.5 0,1 0,-8,0" fill="#F4A3A8"/>
    <path d="M47,49 a4,2.5 0,1 0,8,0 a4,2.5 0,1 0,-8,0" fill="#F4A3A8"/>
    <path d="M31.5,49 a6.5,5 0,1 0,13,0 a6.5,5 0,1 0,-13,0" fill="#FFF1DC"/>
    <path d="M36,47 a2,1.5 0,1 0,4,0 a2,1.5 0,1 0,-4,0" fill="#664B47"/>
    <path d="M38,49 v2 q-2,2 -3,0 M38,51 q2,2 3,0" fill="#000000" fill-opacity="0" stroke="#664B47" stroke-width="1.2" stroke-linecap="round" stroke-linejoin="round"/>
    <path d="M61,29 a8,8 0,1 0,16,0 a8,8 0,1 0,-16,0" fill="#FFF5DF" stroke="#FFFFFF" stroke-width="3" stroke-linecap="round" stroke-linejoin="round"/>
    <path d="M85,29 a8,8 0,1 0,16,0 a8,8 0,1 0,-16,0" fill="#FFF5DF" stroke="#FFFFFF" stroke-width="3" stroke-linecap="round" stroke-linejoin="round"/>
    <path d="M66,29 a3,3 0,1 0,6,0 a3,3 0,1 0,-6,0" fill="#EFBCAC"/>
    <path d="M90,29 a3,3 0,1 0,6,0 a3,3 0,1 0,-6,0" fill="#EFBCAC"/>
    <path d="M61,66 a20,22 0,1 0,40,0 a20,22 0,1 0,-40,0" fill="#FFF5DF" stroke="#FFFFFF" stroke-width="3" stroke-linecap="round" stroke-linejoin="round"/>
    <path d="M59,44 a22,20 0,1 0,44,0 a22,20 0,1 0,-44,0" fill="#FFF5DF" stroke="#FFFFFF" stroke-width="3" stroke-linecap="round" stroke-linejoin="round"/>
    <path d="M72.3,44 a1.7,2.2 0,1 0,3.4,0 a1.7,2.2 0,1 0,-3.4,0" fill="#664B47"/>
    <path d="M86.3,44 a1.7,2.2 0,1 0,3.4,0 a1.7,2.2 0,1 0,-3.4,0" fill="#664B47"/>
    <path d="M64,50 a4,2.5 0,1 0,8,0 a4,2.5 0,1 0,-8,0" fill="#F4A3A8"/>
    <path d="M90,50 a4,2.5 0,1 0,8,0 a4,2.5 0,1 0,-8,0" fill="#F4A3A8"/>
    <path d="M74.5,50 a6.5,5 0,1 0,13,0 a6.5,5 0,1 0,-13,0" fill="#FFF1DC"/>
    <path d="M79,48 a2,1.5 0,1 0,4,0 a2,1.5 0,1 0,-4,0" fill="#664B47"/>
    <path d="M81,50 v2 q-2,2 -3,0 M81,52 q2,2 3,0" fill="#000000" fill-opacity="0" stroke="#664B47" stroke-width="1.2" stroke-linecap="round" stroke-linejoin="round"/>
    <path d="M60,81.15 C25.799999999999997,61.2 46.7,42.2 60,56.45 C73.3,42.2 94.2,61.2 60,81.15Z" fill="#F07DA5" stroke="#FFFFFF" stroke-width="3" stroke-linecap="round" stroke-linejoin="round"/>
    <path d="M49,57 Q55,52 59,56" fill="#000000" fill-opacity="0" stroke="#FFD3E2" stroke-width="2" stroke-linecap="round" stroke-linejoin="round"/>
    <path d="M33,63 a7,4 0,1 0,14,0 a7,4 0,1 0,-14,0" fill="#DBAA83" stroke="#FFFFFF" stroke-width="2" stroke-linecap="round" stroke-linejoin="round"/>
    <path d="M73,64 a7,4 0,1 0,14,0 a7,4 0,1 0,-14,0" fill="#FFF5DF" stroke="#FFFFFF" stroke-width="2" stroke-linecap="round" stroke-linejoin="round"/>
</svg>
